<?xml version="1.0" encoding="utf-8"?>
<svg width="956" height="956" viewBox="0 0 956 956" version="1.1" xmlns="http://www.w3.org/2000/svg">
  <path d="M 377.488 104 C 385.388 131.057, 422.947 162.312, 465 176.823 C 499.814 188.836, 515.945 198.948, 527.784 216.180 C 532.211 222.623, 532.012 222.639, 523.490 216.524 C 515.405 210.724, 508.289 207.625, 498 205.425 L 491.500 204.035 481.500 204.043 C 476 204.048, 467.033 204.486, 461.574 205.017 C 456.115 205.548, 451.432 205.765, 451.166 205.500 C 450.459 204.793, 462.971 199.293, 472.218 196.247 L 480.229 193.607 476.365 192.267 C 474.239 191.529, 468.679 190.538, 464.009 190.063 L 455.517 189.200 445.509 190.126 C 426.488 191.887, 406.711 197.845, 392 206.244 C 382.433 211.707, 362.210 226.064, 361.493 227.903 L 360.946 229.305 370.585 228.672 L 380.224 228.039 394.862 222.144 C 402.913 218.902, 412.650 215.467, 416.500 214.511 L 423.500 212.771 432.070 212.767 C 451.502 212.756, 458.458 214.933, 444.513 216.661 L 436.026 217.713 429.263 221.014 L 422.500 224.315 415.500 231.458 C 405.259 241.907, 397.767 255.803, 392.784 273.592 L 390.568 281.500 390.419 308 C 390.192 348.338, 391.277 354.639, 400.958 369.207 C 405.147 375.510, 414.979 387.334, 413.674 384.500 C 413.421 383.950, 412.675 377.650, 412.015 370.500 L 410.816 357.500 408.858 353.009 C 407.781 350.539, 405.638 346.489, 404.097 344.009 C 402.555 341.529, 400.297 337.700, 399.077 335.500 L 396.860 331.500 399.677 335 C 404.047 340.431, 414.321 351.099, 416.099 352.052 L 417.697 352.908 414.863 343.375 C 411.399 331.724, 408.730 318.874, 409.172 315.973 L 409.500 313.820 415.619 322.669 C 421.658 331.400, 427.295 337.872, 445.975 357.518 C 462.415 374.808, 472.806 390.267, 477.553 404.500 L 480.221 412.500 479.798 420.592 L 479.375 428.684 476.743 433.176 C 474.062 437.750, 467.963 443.879, 463.960 446.022 L 461.742 447.208 462.367 443.854 C 462.711 442.009, 463.282 436.795, 463.636 432.267 L 464.280 424.034 463.030 416.284 C 460.963 403.473, 454.774 387.938, 447.580 377.505 L 445.515 374.510 444.386 383.681 L 443.257 392.853 440.235 399.311 L 437.213 405.770 430.015 413.347 L 422.817 420.925 414.773 426.085 C 403.993 433, 391.105 438.241, 373.277 442.959 C 344.122 450.675, 335.709 454.843, 315.671 471.498 C 306.835 478.842, 307.158 478.923, 323.618 473.478 C 336.626 469.175, 373.973 458, 375.346 458 C 375.689 458, 370.519 463.287, 363.857 469.750 L 351.745 481.500 343.885 492 C 339.561 497.775, 333.881 506.722, 331.262 511.883 L 326.500 521.266 326.192 516.556 L 325.884 511.846 328.106 504.361 L 330.328 496.876 334.664 489.843 C 337.049 485.975, 339 482.598, 339 482.338 C 339 482.077, 336.246 483.358, 332.879 485.182 L 326.759 488.500 319.267 496 L 311.776 503.500 305.483 513 C 296.516 526.537, 290.055 539.643, 283.424 557.750 L 280.036 567 281.045 567 C 281.600 567, 287.633 562.302, 294.451 556.560 C 307.789 545.329, 315.307 539.990, 321.250 537.527 C 325.768 535.655, 325.762 535.617, 321.976 542.892 L 318.953 548.702 317.845 554.992 L 316.736 561.283 317.913 569.695 C 318.560 574.321, 319.527 579.256, 320.062 580.662 L 321.033 583.217 322.468 582.027 C 323.256 581.372, 324.204 578.736, 324.573 576.168 C 324.943 573.601, 325.875 570.778, 326.646 569.895 L 328.048 568.289 327.417 566.645 C 324.999 560.344, 329.553 567.217, 334.463 577.280 L 340.426 589.500 349.249 601.222 C 360.691 616.422, 372.192 628.504, 382.908 636.577 L 391.500 643.051 402.500 648.507 C 426.990 660.652, 449.367 665.255, 491.754 666.866 C 503.443 667.311, 513.276 667.943, 513.604 668.271 C 514.987 669.653, 512.549 670.901, 505.254 672.543 C 500.989 673.504, 498.063 674.487, 498.750 674.728 C 500.556 675.362, 500.287 677, 498.378 677 L 496.755 677 498 678.500 L 499.245 680 505.579 680 L 511.914 680 525.207 676.571 C 549.943 670.190, 579.412 658.922, 621.191 639.869 C 661.594 621.444, 676.902 616.128, 695.592 614.035 L 704.683 613.016 713.092 614.070 L 721.500 615.124 727.500 617.503 L 733.500 619.883 728.551 615.462 C 711.957 600.640, 687.307 597.191, 664.060 606.438 C 660.519 607.847, 657.411 609, 657.154 609 C 656.897 609, 659.996 606.676, 664.040 603.835 C 694.121 582.711, 704.006 542.599, 688.150 506 L 686.634 502.500 685.935 505.500 C 685.551 507.150, 685.183 513.842, 685.118 520.372 C 684.554 576.968, 662.002 606.178, 602.966 626.778 C 577.125 635.794, 554.978 639.818, 526.345 640.698 L 507.190 641.287 494.348 640.024 C 434.835 634.172, 404.340 609.335, 392.411 557 L 390.018 546.500 389.935 539.500 C 389.889 535.650, 389.547 530.475, 389.174 528 L 388.496 523.500 385.870 528 C 382.079 534.497, 378.216 545.868, 376.414 555.838 L 374.848 564.500 374.841 576.778 C 374.837 583.530, 375.136 590.843, 375.505 593.028 L 376.176 597 374.619 597 L 373.063 597 373.638 595.500 L 374.214 594 373 594 L 371.786 594 372.342 592.552 L 372.897 591.104 370.199 586.302 L 367.500 581.500 367.515 565 L 367.530 548.500 369.311 540 L 371.092 531.500 375.557 522.500 C 378.013 517.550, 383.054 509.225, 386.761 504 L 393.500 494.500 407.500 480.378 L 421.500 466.257 428.913 461.124 C 437.054 455.487, 438.698 455.229, 434.622 460.228 C 426.640 470.019, 420.909 477.975, 419.290 481.513 C 418.287 483.706, 416.674 486.677, 415.706 488.116 C 414.738 489.555, 412.582 494.643, 410.915 499.422 L 407.884 508.111 406.740 519.558 L 405.596 531.004 406.754 540.172 L 407.911 549.339 409.432 550.860 C 411.501 552.930, 411.504 552.925, 416.376 538.694 C 425.326 512.551, 440.620 496.507, 476.182 475.955 C 495.653 464.702, 500.783 461.112, 506.802 454.526 L 511.954 448.889 513.977 442.339 L 516 435.789 516 425.342 L 516 414.895 514.393 407.830 C 512.450 399.286, 509.542 392.519, 504.147 383.987 C 499.713 376.973, 499.589 375.845, 503.537 378.432 C 515.230 386.094, 534.961 410.087, 535.015 416.710 C 535.023 417.695, 535.677 420.361, 536.470 422.635 C 537.262 424.909, 538.206 430.759, 538.566 435.635 L 539.222 444.500 538.111 450.500 C 537.500 453.800, 535.587 459.425, 533.860 463 L 530.721 469.500 521.350 478.750 C 516.196 483.837, 511.491 488, 510.895 488 C 510.299 488, 506.735 490.064, 502.975 492.587 L 496.138 497.173 494.319 496.798 L 492.500 496.423 492.639 494.712 C 493.369 485.717, 462.127 521.494, 451.494 541.830 L 448.781 547.018 449.464 550.759 C 449.840 552.817, 450.828 555.555, 451.659 556.844 L 453.170 559.189 455.318 558.627 L 457.467 558.065 460.233 561.094 C 461.755 562.760, 463 563.817, 463 563.443 C 463 563.069, 464.521 563.923, 466.381 565.341 C 470.708 568.642, 477.946 571.828, 490.500 575.959 C 496 577.769, 502.171 580.167, 504.214 581.289 L 507.928 583.328 509.464 586.565 C 513.409 594.879, 508.400 602.521, 497.689 604.530 L 493.948 605.232 495.105 606.626 C 495.741 607.393, 498.767 608.748, 501.829 609.639 L 507.396 611.257 514.240 610.683 L 521.084 610.109 526.629 607.305 L 532.173 604.500 534.107 607 C 535.170 608.375, 536.897 610.512, 537.945 611.750 L 539.849 614 543.975 614 L 548.102 614 549.439 617.250 C 550.175 619.038, 551.091 622.413, 551.476 624.750 C 552.799 632.782, 556.008 625.654, 556.143 614.385 L 556.207 608.965 554.626 606.552 C 553.757 605.225, 550.562 602.654, 547.527 600.838 L 542.009 597.538 540.457 594.268 C 539.604 592.470, 538.640 588.637, 538.315 585.749 C 537.512 578.615, 536.798 577.553, 531.809 576.077 C 523.294 573.558, 492.271 560.822, 481 555.218 L 469.500 549.500 469.181 547.256 L 468.863 545.013 472.100 542.056 C 481.555 533.420, 512.212 522.979, 524.500 524.211 L 528.500 524.611 525.251 525.903 L 522.002 527.195 522.616 528.187 L 523.229 529.180 530.365 528.523 C 541.194 527.527, 559.613 524.450, 578.500 520.481 L 595.500 516.910 608.582 516.312 C 615.778 515.983, 623.349 516.031, 625.408 516.417 L 629.152 517.119 630.563 520.497 L 631.975 523.876 631.352 527.188 C 630.273 532.926, 625.989 540.895, 619.943 548.411 L 614.102 555.671 606.051 561.899 C 596.761 569.086, 596.565 569.418, 602.165 568.472 C 615.216 566.267, 628.629 559.480, 637.569 550.557 L 643.638 544.500 646.270 539 C 648.964 533.373, 655.530 511.791, 656.617 504.991 L 657.223 501.207 651.861 499.656 C 644.655 497.571, 624.097 492.080, 604.164 486.915 L 587.829 482.682 585.720 480.975 L 583.612 479.267 583.272 472.384 L 582.932 465.500 584.498 468.250 L 586.064 471 588.187 471 L 590.310 471 593.950 467.173 C 598.285 462.616, 604.215 450.939, 606.607 442.250 C 609.242 432.681, 610.833 436.824, 611.082 453.897 L 611.163 459.500 612.697 456 C 613.541 454.075, 614.890 448.900, 615.695 444.500 L 617.160 436.500 616.585 426.500 C 614.067 382.622, 595.201 362.371, 536.500 340.538 C 494.502 324.916, 477.552 313.113, 466.422 291.737 L 462.171 283.573 461.335 287.537 C 460.876 289.716, 460.565 295.598, 460.643 300.608 L 460.787 309.715 464.259 319.858 L 467.732 330 466.461 330 C 464.960 330, 457.490 324.036, 454.178 320.194 C 447.673 312.649, 443.435 302.764, 442.432 292.801 L 441.798 286.500 442.975 280 C 443.623 276.425, 445.524 270.700, 447.199 267.278 L 450.247 261.057 455.456 256.130 C 461.105 250.788, 467.953 246.893, 475.017 245.004 C 477.483 244.345, 480.305 242.949, 481.289 241.903 L 483.078 240 488.482 240 L 493.886 240 497.693 242.172 C 506.610 247.259, 506.642 247.516, 500 261.098 L 495 271.323 495 274.126 L 495 276.930 496.750 277.831 C 497.712 278.327, 501.278 278.972, 504.673 279.264 L 510.847 279.796 513.953 281.631 L 517.059 283.466 518.158 287.133 L 519.256 290.799 517.628 295.578 C 516.733 298.206, 516 300.504, 516 300.685 C 516 300.866, 519.134 300.723, 522.963 300.367 L 529.927 299.720 534.473 300.993 L 539.020 302.266 543.470 306.183 C 545.917 308.337, 550.055 313.565, 552.663 317.800 C 559.691 329.208, 562.036 332.061, 566.946 335.178 L 571.392 338 574.718 338 L 578.045 338 582.510 333.884 C 587.491 329.293, 587.511 328.506, 582.671 327.598 C 577.264 326.584, 573 320.838, 573 314.566 L 573 311 572.026 311 C 571.490 311, 570.353 312.350, 569.500 314 C 567.239 318.371, 565.574 317.744, 560.875 310.750 C 549.422 293.703, 534.888 277.861, 526.722 273.523 C 522.053 271.042, 522.058 270.417, 526.750 269.642 C 541.803 267.154, 557.887 271.975, 565.209 281.169 C 571.239 288.741, 573.462 290.633, 578.500 292.481 C 581.250 293.490, 587.008 295.635, 591.294 297.248 L 599.089 300.180 603.744 304.577 L 608.399 308.974 610.687 306.824 C 616.098 301.741, 631.099 276.765, 629.625 275.292 C 629.349 275.015, 625.197 273.684, 620.400 272.332 C 609.258 269.194, 605.231 267.105, 600.736 262.129 L 597.108 258.113 596.153 254.307 C 595.628 252.213, 594.913 246.017, 594.564 240.538 C 593.167 218.590, 591.347 213.980, 582.500 209.978 C 569.938 204.295, 560.018 195.052, 554.353 183.751 L 551.471 178.002 538.993 171.076 C 524.645 163.112, 523.851 163.034, 530.690 170.265 C 536.775 176.700, 536.913 176.953, 541.400 189.847 C 546.089 203.324, 545.887 204.357, 540.078 196.605 C 533.301 187.560, 507.517 167.875, 492.791 160.502 L 483.818 156.011 467.659 150.901 C 411.014 132.989, 404.505 129.831, 386.629 111.579 L 376.758 101.500 377.488 104 M 261.677 140.121 L 259.854 141.181 261.467 142.963 L 263.080 144.746 261.040 145.279 L 259 145.813 259 149.046 L 259 152.280 257.250 153.640 L 255.500 155.001 257.250 156.050 C 258.212 156.627, 259 157.722, 259 158.482 C 259 160.049, 262.460 161.452, 263.991 160.506 L 265 159.882 265 152.941 L 265 146 266.393 146 C 269.059 146, 270.138 156.005, 267.919 160.151 C 266.352 163.080, 267.539 163.590, 271.513 161.695 L 275 160.032 275 158.016 L 275 156 276.624 156 L 278.248 156 277.778 150.332 L 277.308 144.664 274.138 141.832 L 270.968 139 267.234 139.030 C 265.180 139.047, 262.680 139.538, 261.677 140.121 M 366.582 147.981 C 375.536 160.445, 387.037 170.529, 398.581 176.039 L 404.720 178.968 411.610 179.964 C 415.399 180.512, 421.736 180.969, 425.691 180.980 L 432.882 181 433.501 179.998 L 434.120 178.997 430.855 176.014 C 425.935 171.521, 415.717 166.571, 404 163.004 C 391.092 159.075, 379.647 153.794, 370.740 147.657 C 362.333 141.865, 362.195 141.875, 366.582 147.981 M 673.244 161.491 C 670.178 163.707, 668 168.198, 668 172.302 L 668 175.704 670.287 179.102 C 671.545 180.971, 673.834 183.105, 675.372 183.845 L 678.170 185.191 681.704 184.528 L 685.239 183.865 688.773 180.432 C 690.716 178.545, 693.250 176.945, 694.403 176.877 C 695.557 176.809, 712.025 176.847, 731 176.960 L 765.500 177.167 768 176.147 L 770.500 175.127 765 174.939 L 759.500 174.750 764.649 173.997 C 772.692 172.819, 774.703 170, 767.500 170 C 765.640 170, 763.855 169.575, 763.534 169.056 L 762.951 168.112 767.725 167.736 C 770.351 167.529, 756.075 167.277, 736 167.175 L 699.500 166.989 695.584 165.902 C 693.430 165.304, 690.406 163.882, 688.865 162.742 L 686.062 160.670 680.781 160.266 L 675.500 159.861 673.244 161.491 M 216.535 164.104 L 213 167.207 213 171.027 L 213 174.847 215.666 178.015 L 218.332 181.184 221.368 180.576 C 225.076 179.835, 228.617 176.662, 229.452 173.333 L 230.074 170.856 227.987 167.480 C 226.840 165.623, 225.023 163.825, 223.950 163.484 C 222.878 163.144, 222 162.446, 222 161.933 C 222 160.218, 220.101 160.972, 216.535 164.104 M 782 169.427 C 782 170.211, 781.212 171.059, 780.250 171.311 L 778.500 171.768 782 171.869 C 783.925 171.924, 786.175 171.526, 787 170.985 L 788.500 170 787 169.015 C 786.175 168.474, 784.712 168.024, 783.750 168.015 L 782 168 782 169.427 M 218.200 170.200 C 216.581 171.819, 216.690 173.547, 218.529 175.386 L 220.058 176.915 221.529 176.351 C 223.063 175.762, 223.433 173.291, 222.393 170.582 C 221.671 168.701, 219.864 168.536, 218.200 170.200 M 268.533 169.947 C 267.653 171.370, 268.775 173, 270.632 173 L 272.147 173 271.823 171.333 C 271.434 169.324, 269.437 168.484, 268.533 169.947 M 679.092 171.377 L 677.685 173.085 678.826 174.226 C 680.339 175.739, 681.240 174.704, 680.831 171.921 L 680.500 169.670 679.092 171.377 M 144.336 172.567 C 144.005 173.429, 144.202 174.602, 144.775 175.175 L 145.815 176.215 146.872 174.239 C 147.915 172.290, 147.489 171, 145.802 171 C 145.326 171, 144.667 171.705, 144.336 172.567 M 343.040 175.452 C 341.506 177.300, 342.020 179.983, 344.166 181.335 L 345.832 182.384 347.416 181.070 C 348.287 180.347, 349 178.733, 349 177.485 L 349 175.214 347.418 174.607 C 345.080 173.710, 344.372 173.847, 343.040 175.452 M 302.116 188.783 L 301.037 190.800 302.686 191.433 L 304.334 192.066 305.374 191.026 L 306.414 189.986 304.805 188.376 L 303.195 186.767 302.116 188.783 M 641.655 193.829 C 640.745 194.835, 640 196.624, 640 197.806 L 640 199.954 642.433 201.548 L 644.866 203.142 646.818 202.097 C 647.892 201.523, 649.058 199.907, 649.409 198.506 L 650.048 195.959 648.989 193.979 L 647.930 192 645.620 192 C 644.349 192, 642.565 192.823, 641.655 193.829 M 801.545 215.859 C 800.660 218.646, 801.919 220.942, 804.718 221.644 L 807.215 222.271 808.092 220.885 C 808.575 220.123, 808.976 218.262, 808.985 216.750 L 809 214 805.567 214 L 802.135 214 801.545 215.859 M 720.580 217.653 C 719.843 219.574, 720.686 221, 722.559 221 L 724 221 724 219.107 C 724 218.066, 723.362 216.969, 722.583 216.670 L 721.166 216.126 720.580 217.653 M 543.984 222.977 C 545.150 224.614, 547.201 229.179, 548.541 233.121 C 553.509 247.727, 557.651 252.215, 570 256.371 L 577.500 258.895 578.349 258.048 C 580.686 255.718, 574.500 247.080, 565.155 239.623 C 561.326 236.568, 554.779 230.903, 550.606 227.034 C 542.356 219.385, 540.706 218.374, 543.984 222.977 M 294.392 227.573 L 293.746 230.146 294.623 231.002 C 295.105 231.473, 296.726 232.161, 298.225 232.531 L 300.950 233.204 302.185 230.493 L 303.421 227.781 301.519 226.390 C 300.473 225.626, 298.587 225, 297.328 225 L 295.038 225 294.392 227.573 M 395.445 235.923 C 386.829 240.078, 375.781 249.500, 356.500 269.134 L 339.500 286.447 342.163 286.781 C 343.628 286.965, 348.752 286.184, 353.548 285.045 L 362.270 282.973 368.177 279.825 L 374.084 276.677 379.399 270.935 L 384.715 265.194 390.009 254.847 C 392.921 249.156, 396.836 242.088, 398.709 239.141 C 402.921 232.513, 402.787 232.382, 395.445 235.923 M 251.500 234.954 C 250.400 235.409, 248.451 236.911, 247.168 238.292 L 244.836 240.803 244.291 244.866 L 243.746 248.929 246.838 253.748 C 248.539 256.398, 250.734 261.477, 251.715 265.033 L 253.500 271.500 253.421 294.500 L 253.342 317.500 251.611 330.500 C 246.700 367.387, 237.655 398.439, 230.744 402.137 L 228.826 403.164 224.017 402.502 L 219.208 401.841 216.121 403.437 C 214.423 404.315, 212.323 406.409, 211.454 408.090 L 209.873 411.146 210.510 414.046 L 211.147 416.946 214.050 419.388 C 215.646 420.732, 218.233 422.112, 219.799 422.456 L 222.645 423.081 227.073 421.170 C 245.927 413.033, 255.790 395.567, 259.642 363.500 L 261.203 350.500 261.919 303.500 L 262.636 256.500 264.796 252 C 267.489 246.389, 267.520 244.365, 264.974 240.190 L 262.956 236.880 259.510 235.440 C 255.659 233.831, 254.400 233.754, 251.500 234.954 M 662.885 243.677 C 662.822 244.130, 662.839 245.226, 662.924 246.112 L 663.079 247.725 660.016 248.993 C 658.331 249.691, 656.555 250.973, 656.068 251.842 L 655.184 253.422 658.079 255.558 C 659.671 256.733, 660.679 257.987, 660.320 258.347 C 659.961 258.706, 660.165 259, 660.774 259 C 661.384 259, 662.124 258.609, 662.419 258.130 L 662.957 257.261 667.228 258.087 C 669.578 258.541, 681.625 258.930, 694 258.952 L 716.500 258.990 721.250 260.693 C 723.862 261.629, 726 262.912, 726 263.544 C 726 264.176, 728.138 266.671, 730.750 269.089 L 735.500 273.486 739.500 274.728 C 743.858 276.081, 751.756 276.207, 756.500 275 L 759.500 274.237 754 274.103 L 748.500 273.969 749.797 273.146 L 751.095 272.323 749.471 270.976 L 747.848 269.629 747.174 270.680 C 746.803 271.258, 745.375 272.039, 744 272.417 L 741.500 273.104 743.427 271.562 C 744.487 270.714, 745.162 269.876, 744.927 269.699 C 744.692 269.522, 740.093 265.224, 734.706 260.147 C 729.319 255.070, 723.694 250.392, 722.206 249.750 L 719.500 248.584 693 248.042 L 666.500 247.500 666.500 245.516 L 666.500 243.533 664.750 243.193 C 663.788 243.006, 662.948 243.224, 662.885 243.677 M 293.832 247.470 L 292.706 249.941 293.975 251.470 C 295.863 253.745, 297.893 253.328, 299.232 250.390 L 300.421 247.781 298.519 246.390 C 295.877 244.458, 295.125 244.631, 293.832 247.470 M 588.688 278.670 L 584.876 279.128 585.261 280.314 C 585.473 280.966, 587.601 282.587, 589.990 283.917 L 594.333 286.333 598.574 286.333 L 602.815 286.333 605.871 283.762 C 607.551 282.348, 609.505 280.985, 610.213 280.733 C 614.709 279.130, 598.104 277.539, 588.688 278.670 M 373.641 294.750 C 364.941 305.536, 344.826 340.160, 346.366 341.699 C 347.253 342.587, 361.520 336.110, 368.230 331.773 L 374.129 327.960 376.716 322.310 L 379.303 316.659 379.789 302.329 C 380.355 285.678, 380.658 286.052, 373.641 294.750 M 76.503 307.991 C 75.356 311.605, 79.069 313.869, 80.410 310.373 L 81.035 308.747 79.895 307.373 C 78.310 305.464, 77.243 305.658, 76.503 307.991 M 848.468 310.101 L 847.801 312.201 848.794 313.194 C 850.302 314.702, 853.431 313.717, 853.837 311.608 C 854.519 308.065, 849.557 306.671, 848.468 310.101 M 168.015 339.702 L 162.531 342.588 159.779 347.044 L 157.026 351.500 156.410 356.010 L 155.794 360.521 156.944 364.792 L 158.094 369.063 162.297 373.437 L 166.500 377.811 172.146 379.446 L 177.791 381.081 182.590 379.873 L 187.388 378.665 191.628 374.425 L 195.868 370.185 197.397 365.035 L 198.926 359.885 197.943 354.702 L 196.961 349.519 194.141 346.010 C 190.448 341.413, 184.298 338.055, 178.314 337.368 L 173.500 336.815 168.015 339.702 M 669.114 346.582 C 667.997 348.003, 666.806 350.035, 666.468 351.099 C 666.131 352.163, 664.425 353.648, 662.677 354.400 C 658.637 356.136, 645.515 368.297, 637.318 377.903 L 631 385.305 631.015 388.403 C 631.024 390.106, 631.418 392.111, 631.890 392.857 L 632.750 394.214 634.817 393.558 C 635.954 393.197, 643.094 387.001, 650.684 379.789 C 658.274 372.577, 665.740 365.912, 667.276 364.979 L 670.067 363.281 673.784 363.957 C 675.828 364.329, 678.957 364.255, 680.737 363.792 L 683.975 362.949 685.487 360.024 C 689.763 351.755, 684.997 344, 675.638 344 L 671.145 344 669.114 346.582 M 172.388 347.980 C 171.227 348.449, 169.314 350.057, 168.138 351.552 L 166 354.270 166 358.185 C 166 362.763, 168.074 367.238, 171.217 369.439 L 173.445 371 177.075 371 L 180.704 371 184.102 368.713 L 187.500 366.427 188.755 362.619 L 190.010 358.811 188.093 354.477 L 186.175 350.142 183.137 348.571 C 179.835 346.863, 175.713 346.637, 172.388 347.980 M 550.975 361.802 C 561.284 368.874, 569.244 377.538, 573.895 386.750 C 576.017 390.953, 575.470 392.476, 572.935 389.422 C 569.589 385.391, 560.317 382.347, 542.750 379.514 L 539 378.909 539 379.800 C 539 380.290, 542.938 383.094, 547.750 386.032 L 556.500 391.373 564.501 399.437 L 572.501 407.500 577.856 417.250 C 583.547 427.613, 584.255 428.260, 586.106 424.801 L 587.283 422.603 586.723 409.551 L 586.164 396.500 584.519 389.327 L 582.875 382.154 579.884 377.639 L 576.894 373.124 571.697 369.747 C 565.604 365.788, 552.744 359.977, 550.241 360.052 L 548.500 360.105 550.975 361.802 M 769.863 367.969 C 768.412 368.408, 762.112 369.096, 755.863 369.499 L 744.500 370.232 741.719 371.657 C 740.190 372.442, 733.360 378.463, 726.541 385.039 C 712.269 398.802, 711.891 399, 699.836 399 L 690.802 399 687.151 400.717 L 683.500 402.434 660.890 424.967 L 638.280 447.500 635.604 453.083 C 634.133 456.154, 632.671 460.252, 632.357 462.189 L 631.785 465.711 634.143 466.342 C 635.439 466.689, 646.937 466.979, 659.693 466.986 L 682.887 467 684.642 469.971 L 686.397 472.942 690.219 474.471 C 695.630 476.636, 696.770 476.430, 700.600 472.600 L 704 469.200 704 465.534 C 704 460.815, 702.657 458.391, 698.990 456.495 L 696.039 454.969 672.019 455.643 L 648 456.318 647.974 454.909 C 647.959 454.134, 657.268 444.330, 668.660 433.121 L 689.372 412.742 692.654 411.371 L 695.936 410 705.218 409.996 L 714.500 409.993 717.500 408.108 C 719.150 407.071, 725.514 401.522, 731.643 395.776 C 737.772 390.030, 744.522 384.468, 746.643 383.415 L 750.500 381.500 759.500 381.526 C 764.450 381.540, 770.664 381.727, 773.308 381.940 L 778.116 382.329 780.212 380.232 L 782.308 378.136 782.214 374.818 L 782.120 371.500 779.504 369.250 C 776.797 366.921, 774.387 366.601, 769.863 367.969 M 334.750 373.080 L 333 374.099 333 376.515 L 333 378.930 335.183 380.098 L 337.366 381.266 339.183 379.022 C 342.575 374.833, 339.293 370.434, 334.750 373.080 M 310.923 398.923 L 308 401.846 308 405 L 308 408.154 310.792 410.945 L 313.583 413.737 319.042 415.355 L 324.500 416.974 332.500 424.083 L 340.500 431.193 344.837 430.709 C 347.222 430.444, 349.656 429.744, 350.246 429.154 L 351.317 428.083 339.798 416.291 C 333.462 409.806, 327.958 403.480, 327.567 402.233 L 326.855 399.966 322.967 397.983 C 320.829 396.892, 317.902 396, 316.463 396 L 313.846 396 310.923 398.923 M 395.587 406.442 C 394.155 408.886, 389.325 414.749, 384.855 419.472 C 380.384 424.195, 376.988 428.322, 377.309 428.642 C 378.390 429.724, 387.569 426.917, 392.891 423.877 L 398.174 420.860 400.113 416.477 L 402.052 412.093 400.903 407.530 C 399.356 401.386, 398.636 401.239, 395.587 406.442 M 166.210 414.261 C 164.951 415.610, 163.677 418.240, 163.379 420.107 L 162.837 423.500 165.185 426.964 L 167.532 430.429 171.016 431.645 C 172.932 432.314, 175.672 433.110, 177.104 433.413 L 179.708 433.965 193.984 447.590 L 208.260 461.214 212.380 463.085 L 216.500 464.956 224.849 464.978 L 233.198 465 236.546 463.411 C 238.388 462.537, 245.217 456.800, 251.721 450.661 C 258.226 444.522, 264.393 438.825, 265.425 438 L 267.303 436.500 292.901 436 L 318.500 435.500 315.745 432.881 L 312.990 430.262 305.188 427.683 C 300.896 426.265, 293.361 424.596, 288.442 423.975 L 279.500 422.847 272.360 423.498 L 265.220 424.150 252.360 435.444 C 245.287 441.656, 237.721 448.597, 235.547 450.869 L 231.594 455 229.308 455 C 216.649 455, 187.986 432.598, 185.544 420.795 L 184.984 418.090 181.450 415.394 L 177.916 412.698 173.208 412.253 L 168.500 411.808 166.210 414.261 M 128.073 432.635 C 123.787 438.083, 127.730 445, 135.123 445 L 137.801 445 154.748 460.794 C 164.069 469.480, 175.364 479.916, 179.848 483.985 C 184.331 488.053, 188 491.779, 188 492.264 L 188 493.146 143.250 492.823 L 98.500 492.500 95.300 490.750 L 92.099 489 88.139 489 L 84.178 489 81.589 492.077 L 79 495.153 79 499.124 L 79 503.095 81.540 505.449 C 82.937 506.744, 85.163 508.075, 86.488 508.408 L 88.896 509.012 93.932 507.027 L 98.969 505.042 110.734 503.881 L 122.500 502.721 149.500 503.343 C 176.165 503.957, 191.816 505.073, 201.434 507.046 L 206.368 508.058 211.816 512.543 C 217.661 517.355, 220.631 518.560, 224.346 517.628 L 226.691 517.039 245.596 499.406 C 255.993 489.707, 265.850 480.925, 267.500 479.890 L 270.500 478.007 274.571 478.004 L 278.641 478 284.068 475.250 L 289.494 472.500 290.997 469.694 L 292.500 466.887 290.500 465.360 L 288.500 463.834 283.535 464.395 L 278.571 464.957 270.330 468.911 C 258.702 474.490, 250.940 480.018, 240 490.511 C 234.775 495.523, 229.202 500.608, 227.615 501.812 L 224.730 504 221.515 504 L 218.300 504 213.900 500.818 C 211.480 499.068, 204.775 493.091, 199 487.535 C 193.225 481.980, 181.525 470.912, 173 462.941 C 138.519 430.700, 137.678 430.011, 132.823 430.004 L 130.145 430 128.073 432.635 M 765.500 445.659 C 760.605 448.235, 757.282 451.916, 754.943 457.354 L 752.741 462.472 753.384 470.832 L 754.026 479.191 733.706 499.846 L 713.386 520.500 712.042 523.821 L 710.698 527.143 712.685 529.129 L 714.672 531.116 718.815 527.655 C 721.094 525.751, 731.277 516.189, 741.444 506.406 C 751.612 496.623, 760.734 488.164, 761.715 487.609 L 763.500 486.599 770.172 486.863 L 776.844 487.127 780.866 485.922 C 792.181 482.532, 798.351 470.578, 794.838 458.852 L 793.675 454.972 790.168 451.362 C 788.240 449.376, 784.825 446.917, 782.581 445.897 L 778.500 444.044 773.500 444.062 L 768.500 444.080 765.500 445.659 M 767.802 456.190 L 764.105 458.333 762.938 461.150 L 761.771 463.967 762.390 467.268 C 763.621 473.825, 768.941 478, 776.068 478 L 779.200 478 782.541 474.659 C 784.379 472.821, 786.193 470.081, 786.572 468.568 L 787.262 465.819 786.077 461.862 L 784.891 457.904 781.696 455.956 L 778.500 454.007 775 454.027 L 771.500 454.046 767.802 456.190 M 279.892 502.354 C 258.638 511.097, 249.943 521.659, 266.149 519.047 C 279.407 516.910, 282.379 515.372, 287.778 507.854 C 293.823 499.435, 291.288 497.667, 279.892 502.354 M 837.668 511.662 C 837.211 512.123, 827.986 512.764, 817.168 513.087 L 797.500 513.673 789.500 516.400 C 754.647 528.277, 720.505 556.306, 717.451 575.548 L 716.809 579.597 718.452 580.960 L 720.095 582.323 724.768 577.912 C 727.339 575.485, 738.241 564.929, 748.996 554.453 C 770.193 533.805, 774.436 530.432, 783.380 527.113 L 789.259 524.931 801.043 524.037 C 807.525 523.545, 813.654 523.308, 814.664 523.511 C 815.674 523.714, 822.936 524.108, 830.803 524.387 L 845.105 524.895 847.053 522.947 L 849 521 849 518.155 L 849 515.310 847.124 513.612 C 844.975 511.667, 838.906 510.415, 837.668 511.662 M 148.110 536.396 C 144.928 538.159, 143.079 541.701, 143.035 546.114 L 143 549.727 145.636 552.364 C 149.395 556.122, 154.624 556.245, 159.500 552.688 L 162.500 550.500 212 549.945 L 261.500 549.389 263.500 548.543 C 266.897 547.105, 269 544.789, 269 542.487 L 269 540.285 262.853 539.642 C 259.473 539.289, 235.864 539, 210.390 539 L 164.074 539 159 537 C 153.109 534.678, 151.382 534.582, 148.110 536.396 M 662.121 553.500 L 658.741 559.500 648.621 569.580 L 638.500 579.660 628.198 586.961 L 617.896 594.263 613.999 600.002 C 609.444 606.709, 602.949 612.672, 594.811 617.615 C 587.817 621.863, 587.629 622.433, 593.509 621.551 C 628.959 616.235, 668.857 577.023, 665.837 550.467 L 665.500 547.500 662.121 553.500 M 306.456 567.750 C 296.663 580.063, 289.212 599.365, 286.895 618.423 L 285.800 627.434 286.506 635.918 C 286.895 640.584, 287.534 645.268, 287.926 646.328 L 288.638 648.255 291.960 639.377 C 296.322 627.721, 299.227 621.998, 305.129 613.431 L 310 606.361 310.044 588.431 C 310.068 578.569, 310.457 568.587, 310.909 566.250 C 311.951 560.864, 311.926 560.872, 306.456 567.750 M 193.698 567.160 C 192.255 568.447, 190.808 570.644, 190.481 572.043 L 189.887 574.587 191.956 577.217 L 194.024 579.846 196.933 580.485 L 199.842 581.124 205.103 579.562 L 210.363 578 230.432 577.986 C 241.469 577.979, 251.493 577.706, 252.707 577.381 L 254.915 576.789 256.065 573.302 L 257.216 569.816 256.059 568.658 L 254.902 567.500 230.201 566.872 C 216.616 566.526, 203.434 565.924, 200.910 565.532 L 196.320 564.821 193.698 567.160 M 753.514 573.629 L 751.885 575.258 752.442 576.711 C 752.749 577.510, 753 578.336, 753 578.547 C 753 578.757, 753.937 579.431, 755.083 580.045 L 757.166 581.159 759.083 579.425 C 761.411 577.318, 761.509 575.652, 759.429 573.571 C 757.418 571.561, 755.564 571.579, 753.514 573.629 M 128.611 597.572 C 127.747 599.822, 129.732 603, 132 603 L 133.930 603 135.091 600.829 L 136.253 598.658 134.435 597.329 C 131.990 595.541, 129.348 595.651, 128.611 597.572 M 592.025 599.061 C 588.463 600.111, 582.404 601.314, 578.561 601.735 L 571.573 602.500 570.389 605 C 564.576 617.273, 564.626 622.996, 570.514 619.545 C 579.030 614.554, 601.780 596.562, 598.924 597.076 C 598.691 597.118, 595.586 598.012, 592.025 599.061 M 249.011 616.250 L 237.997 626.500 231.911 629.750 L 225.825 633 222.888 633 L 219.950 633 219.094 630.748 C 218.624 629.510, 216.022 626.424, 213.313 623.890 L 208.389 619.283 204.582 618.027 L 200.776 616.771 195.378 617.219 L 189.980 617.666 186.240 620.672 C 184.183 622.326, 181.382 625.664, 180.016 628.089 L 177.532 632.500 177.516 638.573 L 177.500 644.646 180.259 648.814 C 183.364 653.508, 188.912 657.489, 193.730 658.484 L 196.960 659.150 202.346 658.032 C 205.309 657.417, 209.605 655.699, 211.894 654.215 L 216.055 651.517 218.117 647.259 L 220.178 643 224.839 642.990 L 229.500 642.980 234.791 640.517 C 247.822 634.450, 264 618.175, 264 611.131 C 264 603.631, 261.744 604.401, 249.011 616.250 M 191.973 627.704 C 188.481 630.111, 187.158 632.023, 186.426 635.717 L 185.790 638.934 187.910 643.313 L 190.030 647.692 192.562 648.846 C 193.955 649.481, 196.581 650, 198.399 650 L 201.704 650 205.067 647.734 L 208.429 645.468 209.875 641.669 L 211.321 637.870 210.410 634.185 L 209.500 630.500 205.038 628.250 C 199.713 625.565, 195.341 625.382, 191.973 627.704 M 322.985 642.191 L 322.969 644.500 322.124 643.166 L 321.278 641.832 320.639 643.498 C 320.288 644.414, 320 646.455, 320 648.034 L 320 650.904 315.696 653.865 C 304.669 661.452, 302.063 669.873, 301.112 701 L 300.454 722.500 298.606 726.266 L 296.757 730.031 258.866 769.766 L 220.975 809.500 220.376 811.763 L 219.777 814.026 221.011 815.513 C 221.690 816.331, 223.239 817, 224.453 817 L 226.662 817 234.049 809.250 C 238.111 804.987, 255.929 786.585, 273.643 768.356 L 305.851 735.212 308.093 730.856 L 310.335 726.500 310.931 700.887 L 311.527 675.274 312.998 673.387 C 313.807 672.349, 316.330 669.250, 318.606 666.500 C 320.881 663.750, 323.525 659.964, 324.481 658.088 L 326.219 654.675 325.109 650.968 L 323.998 647.261 324.600 644.252 L 325.201 641.243 324.101 640.562 L 323 639.882 322.985 642.191 M 676 647.798 C 676 648.247, 674.763 649.141, 673.250 649.785 L 670.500 650.956 673.500 650.412 L 676.500 649.868 674.642 651.249 L 672.785 652.631 683.642 662.896 C 689.614 668.542, 696.300 674.127, 698.500 675.307 L 702.500 677.452 740 678.086 L 777.500 678.720 781 680.254 L 784.500 681.789 799.565 696.145 C 807.850 704.040, 816.752 712.975, 819.345 716 C 821.939 719.025, 825.183 722.719, 826.553 724.209 L 829.045 726.918 832.602 727.585 L 836.160 728.253 838.535 726.981 C 839.841 726.282, 841.654 724.141, 842.564 722.223 L 844.219 718.736 843.641 715.178 C 843.324 713.221, 842.227 710.782, 841.203 709.759 L 839.342 707.898 832.499 706.929 L 825.657 705.959 821.578 702.592 C 819.335 700.739, 812.126 694.192, 805.558 688.041 C 793.450 676.704, 788.161 672.914, 780.659 670.198 L 776.500 668.692 742 668.041 L 707.500 667.390 703.657 665.707 C 701.544 664.782, 696.432 660.865, 692.297 657.004 L 684.779 649.983 682.139 649.431 C 680.688 649.127, 678.712 648.453, 677.750 647.931 C 676.788 647.410, 676 647.350, 676 647.798 M 342.662 666.051 L 340.055 668.102 337.448 676.301 L 334.841 684.500 334.272 693.776 L 333.703 703.051 335.295 702.440 C 337.641 701.540, 350.859 685.345, 353.229 680.466 L 355.272 676.261 354.602 672.691 L 353.932 669.121 350.889 666.560 C 347.210 663.465, 346.042 663.392, 342.662 666.051 M 251.092 668.402 L 248.836 670.803 248.295 674.835 L 247.755 678.867 249.843 682.247 L 251.932 685.627 252.134 694.249 L 252.335 702.872 249.448 706.658 C 245.410 711.951, 175.621 783.363, 172.464 785.432 C 171.043 786.363, 167.362 787.534, 164.283 788.035 L 158.686 788.946 156.395 791.099 C 155.135 792.283, 153.830 794.498, 153.495 796.022 L 152.887 798.793 154.388 802.386 L 155.889 805.980 159.445 807.675 L 163 809.370 166.441 807.730 L 169.882 806.089 173.572 800.320 L 177.262 794.551 206.904 764.525 C 249.005 721.878, 258.624 711.658, 260.950 707.097 L 263 703.080 263 694.775 L 263 686.470 265 682.739 L 267 679.007 267 675.427 L 267 671.846 264.077 668.923 L 261.154 666 257.251 666 L 253.349 666 251.092 668.402 M 626.431 673.468 L 623.363 676.908 626.431 678.163 C 628.119 678.853, 634.113 683.894, 639.751 689.365 L 650.002 699.312 652.568 704.735 L 655.133 710.158 658.575 711.596 L 662.017 713.034 664.511 712.408 C 665.883 712.063, 668.130 710.446, 669.503 708.814 L 672 705.847 672 702.358 C 672 696.064, 667.702 692, 661.046 692 L 657.992 692 649.246 683.864 C 640.526 675.753, 635.292 671.859, 631.500 670.660 L 629.500 670.028 626.431 673.468 M 362.325 690.627 L 360.604 693.254 360.052 708.877 L 359.500 724.500 357 728.686 C 355.625 730.989, 346.708 741.045, 337.184 751.033 C 327.661 761.022, 319.382 770.262, 318.787 771.567 L 317.706 773.941 318.975 775.470 C 319.674 776.312, 321.487 777, 323.005 777 L 325.765 777 344.085 757.750 C 354.161 747.163, 363.703 737.088, 365.290 735.362 L 368.176 732.223 369.015 714.362 L 369.854 696.500 371.163 693.205 L 372.472 689.910 370.986 688.970 C 370.169 688.453, 368.273 688.024, 366.773 688.015 L 364.046 688 362.325 690.627 M 571 692.971 L 571 695.070 568.887 693.939 L 566.774 692.809 568.637 696.070 C 569.662 697.864, 576.800 705.764, 584.500 713.626 L 598.500 727.921 603 729.938 L 607.500 731.956 614.500 732.014 L 621.500 732.073 646.500 756.091 C 660.250 769.301, 673.678 781.885, 676.340 784.055 L 681.180 788 686.358 788 L 691.536 788 695.409 790.632 L 699.282 793.264 703.240 793.368 L 707.198 793.471 709.599 790.680 L 712 787.888 712 784.378 C 712 775.532, 704.462 771.683, 695.796 776.104 L 691.671 778.208 688.364 777.672 C 683.191 776.832, 677.071 772.004, 659.141 754.615 C 636.574 732.729, 628.384 725.205, 624.653 722.930 L 621.500 721.007 615.315 721.004 C 606.568 720.998, 605.745 720.520, 591.829 707.336 C 584.957 700.826, 577.459 694.459, 575.167 693.186 L 571 690.872 571 692.971 M 396.783 700.750 C 392.550 705.604, 391.986 709.949, 395 714.500 L 396.987 717.500 397.010 759 C 397.024 781.825, 397.463 810.436, 397.987 822.580 L 398.940 844.660 400.221 848.580 L 401.502 852.500 403.751 852.820 L 406 853.139 406.083 847.320 C 406.128 844.119, 406.495 814.050, 406.898 780.500 L 407.632 719.500 410.423 714.245 L 413.214 708.991 412.567 706.410 C 412.211 704.991, 410.747 702.743, 409.314 701.415 L 406.708 699 402.509 699 L 398.310 699 396.783 700.750 M 456.107 712.167 C 456.048 713.633, 455.438 715.021, 454.750 715.250 L 453.500 715.666 453.500 794.179 L 453.500 872.691 454.872 874.346 C 455.627 875.256, 457.074 876, 458.087 876 L 459.930 876 461.215 873.750 L 462.500 871.500 462.266 794.381 L 462.033 717.263 461.080 714.881 L 460.127 712.500 460.063 715.250 C 459.967 719.430, 458.237 718.535, 457.166 713.750 L 456.214 709.500 456.107 712.167 M 530.500 712.732 C 528.055 713.343, 527.035 714.800, 527.015 717.715 L 527 719.930 529.098 721.052 C 530.252 721.670, 535.835 722.506, 541.504 722.911 L 551.812 723.647 554.372 725.324 C 560.976 729.651, 607.453 777.347, 608.914 781.296 L 609.707 783.440 606.854 789.470 L 604.002 795.500 604.023 799.500 C 604.138 821.223, 632.927 827.271, 642.100 807.500 L 643.956 803.500 643.978 798.907 L 644 794.315 641.672 789.907 L 639.344 785.500 635.422 782.811 C 633.265 781.332, 630.375 779.844, 629 779.505 C 627.625 779.167, 624.906 778.472, 622.957 777.962 L 619.414 777.034 591.146 747.511 C 575.598 731.273, 561.595 717.325, 560.028 716.515 C 554.445 713.627, 536.247 711.296, 530.500 712.732 M 496.368 716.214 C 494.886 718.612, 493.860 769.480, 494.256 820.889 L 494.660 873.278 496.561 874.668 C 497.606 875.432, 499.125 875.930, 499.937 875.774 L 501.413 875.489 502.372 871.495 L 503.331 867.500 503.415 794.662 L 503.500 721.824 501.250 720.002 C 500.012 718.999, 499 717.464, 499 716.590 C 499 714.711, 497.435 714.488, 496.368 716.214 M 539.400 751.400 L 536 754.800 536.004 757.150 C 536.007 758.442, 537.355 761.525, 539 764 L 541.991 768.500 541.996 779.112 L 542 789.725 544.899 793.373 L 547.797 797.020 548.932 793.766 C 549.556 791.976, 550.346 784.994, 550.688 778.250 L 551.309 765.988 552.647 764.878 C 553.383 764.267, 554.466 761.982, 555.054 759.801 L 556.122 755.835 554.483 753.334 C 552.844 750.832, 547.507 748, 544.432 748 C 543.534 748, 541.270 749.530, 539.400 751.400 M 616.428 790.672 C 613.392 793.948, 612.588 796.894, 613.294 802.159 L 613.836 806.197 616.044 808.546 C 617.258 809.839, 619.543 811.180, 621.122 811.527 L 623.993 812.157 627.464 811.012 C 629.373 810.382, 632.074 808.512, 633.467 806.857 L 636 803.847 636 800.891 C 636 799.266, 635.360 796.405, 634.579 794.534 L 633.158 791.133 630.128 789.566 C 628.462 788.705, 625.255 788, 623.002 788 L 618.905 788 616.428 790.672" stroke="none" fill-rule="evenodd" style="fill: rgb(179, 26, 36);"/>
  <path d="M 431 1.551 C 201.599 27.384, 29.754 198.185, 2.445 427.500 L 0.897 440.500 0.321 468 L -0.255 495.500 0.917 511.500 C 19.084 759.499, 219.108 949.914, 467.500 955.669 L 493.500 956.271 509 955.103 C 904.059 925.318, 1096.748 468.058, 841.096 167.023 C 825.180 148.282, 808.517 130.486, 803.918 127.319 C 801.667 125.768, 796.828 121.671, 793.163 118.213 C 784.637 110.169, 767.493 96.694, 761.577 93.387 C 759.060 91.980, 757 90.403, 757 89.882 C 757 89.361, 751.919 85.622, 745.710 81.573 C 678.760 37.921, 614.250 13.900, 534.175 2.808 L 519.500 0.775 481.500 0.459 L 443.500 0.144 431 1.551 M 377.488 104 C 385.388 131.057, 422.947 162.312, 465 176.823 C 499.814 188.836, 515.945 198.948, 527.784 216.180 C 532.211 222.623, 532.012 222.639, 523.490 216.524 C 515.405 210.724, 508.289 207.625, 498 205.425 L 491.500 204.035 481.500 204.043 C 476 204.048, 467.033 204.486, 461.574 205.017 C 456.115 205.548, 451.432 205.765, 451.166 205.500 C 450.459 204.793, 462.971 199.293, 472.218 196.247 L 480.229 193.607 476.365 192.267 C 474.239 191.529, 468.679 190.538, 464.009 190.063 L 455.517 189.200 445.509 190.126 C 426.488 191.887, 406.711 197.845, 392 206.244 C 382.433 211.707, 362.210 226.064, 361.493 227.903 L 360.946 229.305 370.585 228.672 L 380.224 228.039 394.862 222.144 C 402.913 218.902, 412.650 215.467, 416.500 214.511 L 423.500 212.771 432.070 212.767 C 451.502 212.756, 458.458 214.933, 444.513 216.661 L 436.026 217.713 429.263 221.014 L 422.500 224.315 415.500 231.458 C 405.259 241.907, 397.767 255.803, 392.784 273.592 L 390.568 281.500 390.419 308 C 390.192 348.338, 391.277 354.639, 400.958 369.207 C 405.147 375.510, 414.979 387.334, 413.674 384.500 C 413.421 383.950, 412.675 377.650, 412.015 370.500 L 410.816 357.500 408.858 353.009 C 407.781 350.539, 405.638 346.489, 404.097 344.009 C 402.555 341.529, 400.297 337.700, 399.077 335.500 L 396.860 331.500 399.677 335 C 404.047 340.431, 414.321 351.099, 416.099 352.052 L 417.697 352.908 414.863 343.375 C 411.399 331.724, 408.730 318.874, 409.172 315.973 L 409.500 313.820 415.619 322.669 C 421.658 331.400, 427.295 337.872, 445.975 357.518 C 462.415 374.808, 472.806 390.267, 477.553 404.500 L 480.221 412.500 479.798 420.592 L 479.375 428.684 476.743 433.176 C 474.062 437.750, 467.963 443.879, 463.960 446.022 L 461.742 447.208 462.367 443.854 C 462.711 442.009, 463.282 436.795, 463.636 432.267 L 464.280 424.034 463.030 416.284 C 460.963 403.473, 454.774 387.938, 447.580 377.505 L 445.515 374.510 444.386 383.681 L 443.257 392.853 440.235 399.311 L 437.213 405.770 430.015 413.347 L 422.817 420.925 414.773 426.085 C 403.993 433, 391.105 438.241, 373.277 442.959 C 344.122 450.675, 335.709 454.843, 315.671 471.498 C 306.835 478.842, 307.158 478.923, 323.618 473.478 C 336.626 469.175, 373.973 458, 375.346 458 C 375.689 458, 370.519 463.287, 363.857 469.750 L 351.745 481.500 343.885 492 C 339.561 497.775, 333.881 506.722, 331.262 511.883 L 326.500 521.266 326.192 516.556 L 325.884 511.846 328.106 504.361 L 330.328 496.876 334.664 489.843 C 337.049 485.975, 339 482.598, 339 482.338 C 339 482.077, 336.246 483.358, 332.879 485.182 L 326.759 488.500 319.267 496 L 311.776 503.500 305.483 513 C 296.516 526.537, 290.055 539.643, 283.424 557.750 L 280.036 567 281.045 567 C 281.600 567, 287.633 562.302, 294.451 556.560 C 307.789 545.329, 315.307 539.990, 321.250 537.527 C 325.768 535.655, 325.762 535.617, 321.976 542.892 L 318.953 548.702 317.845 554.992 L 316.736 561.283 317.913 569.695 C 318.560 574.321, 319.527 579.256, 320.062 580.662 L 321.033 583.217 322.468 582.027 C 323.256 581.372, 324.204 578.736, 324.573 576.168 C 324.943 573.601, 325.875 570.778, 326.646 569.895 L 328.048 568.289 327.417 566.645 C 324.999 560.344, 329.553 567.217, 334.463 577.280 L 340.426 589.500 349.249 601.222 C 360.691 616.422, 372.192 628.504, 382.908 636.577 L 391.500 643.051 402.500 648.507 C 426.990 660.652, 449.367 665.255, 491.754 666.866 C 503.443 667.311, 513.276 667.943, 513.604 668.271 C 514.987 669.653, 512.549 670.901, 505.254 672.543 C 500.989 673.504, 498.063 674.487, 498.750 674.728 C 500.556 675.362, 500.287 677, 498.378 677 L 496.755 677 498 678.500 L 499.245 680 505.579 680 L 511.914 680 525.207 676.571 C 549.943 670.190, 579.412 658.922, 621.191 639.869 C 661.594 621.444, 676.902 616.128, 695.592 614.035 L 704.683 613.016 713.092 614.070 L 721.500 615.124 727.500 617.503 L 733.500 619.883 728.551 615.462 C 711.957 600.640, 687.307 597.191, 664.060 606.438 C 660.519 607.847, 657.411 609, 657.154 609 C 656.897 609, 659.996 606.676, 664.040 603.835 C 694.121 582.711, 704.006 542.599, 688.150 506 L 686.634 502.500 685.935 505.500 C 685.551 507.150, 685.183 513.842, 685.118 520.372 C 684.554 576.968, 662.002 606.178, 602.966 626.778 C 577.125 635.794, 554.978 639.818, 526.345 640.698 L 507.190 641.287 494.348 640.024 C 434.835 634.172, 404.340 609.335, 392.411 557 L 390.018 546.500 389.935 539.500 C 389.889 535.650, 389.547 530.475, 389.174 528 L 388.496 523.500 385.870 528 C 382.079 534.497, 378.216 545.868, 376.414 555.838 L 374.848 564.500 374.841 576.778 C 374.837 583.530, 375.136 590.843, 375.505 593.028 L 376.176 597 374.619 597 L 373.063 597 373.638 595.500 L 374.214 594 373 594 L 371.786 594 372.342 592.552 L 372.897 591.104 370.199 586.302 L 367.500 581.500 367.515 565 L 367.530 548.500 369.311 540 L 371.092 531.500 375.557 522.500 C 378.013 517.550, 383.054 509.225, 386.761 504 L 393.500 494.500 407.500 480.378 L 421.500 466.257 428.913 461.124 C 437.054 455.487, 438.698 455.229, 434.622 460.228 C 426.640 470.019, 420.909 477.975, 419.290 481.513 C 418.287 483.706, 416.674 486.677, 415.706 488.116 C 414.738 489.555, 412.582 494.643, 410.915 499.422 L 407.884 508.111 406.740 519.558 L 405.596 531.004 406.754 540.172 L 407.911 549.339 409.432 550.860 C 411.501 552.930, 411.504 552.925, 416.376 538.694 C 425.326 512.551, 440.620 496.507, 476.182 475.955 C 495.653 464.702, 500.783 461.112, 506.802 454.526 L 511.954 448.889 513.977 442.339 L 516 435.789 516 425.342 L 516 414.895 514.393 407.830 C 512.450 399.286, 509.542 392.519, 504.147 383.987 C 499.713 376.973, 499.589 375.845, 503.537 378.432 C 515.230 386.094, 534.961 410.087, 535.015 416.710 C 535.023 417.695, 535.677 420.361, 536.470 422.635 C 537.262 424.909, 538.206 430.759, 538.566 435.635 L 539.222 444.500 538.111 450.500 C 537.500 453.800, 535.587 459.425, 533.860 463 L 530.721 469.500 521.350 478.750 C 516.196 483.837, 511.491 488, 510.895 488 C 510.299 488, 506.735 490.064, 502.975 492.587 L 496.138 497.173 494.319 496.798 L 492.500 496.423 492.639 494.712 C 493.369 485.717, 462.127 521.494, 451.494 541.830 L 448.781 547.018 449.464 550.759 C 449.840 552.817, 450.828 555.555, 451.659 556.844 L 453.170 559.189 455.318 558.627 L 457.467 558.065 460.233 561.094 C 461.755 562.760, 463 563.817, 463 563.443 C 463 563.069, 464.521 563.923, 466.381 565.341 C 470.708 568.642, 477.946 571.828, 490.500 575.959 C 496 577.769, 502.171 580.167, 504.214 581.289 L 507.928 583.328 509.464 586.565 C 513.409 594.879, 508.400 602.521, 497.689 604.530 L 493.948 605.232 495.105 606.626 C 495.741 607.393, 498.767 608.748, 501.829 609.639 L 507.396 611.257 514.240 610.683 L 521.084 610.109 526.629 607.305 L 532.173 604.500 534.107 607 C 535.170 608.375, 536.897 610.512, 537.945 611.750 L 539.849 614 543.975 614 L 548.102 614 549.439 617.250 C 550.175 619.038, 551.091 622.413, 551.476 624.750 C 552.799 632.782, 556.008 625.654, 556.143 614.385 L 556.207 608.965 554.626 606.552 C 553.757 605.225, 550.562 602.654, 547.527 600.838 L 542.009 597.538 540.457 594.268 C 539.604 592.470, 538.640 588.637, 538.315 585.749 C 537.512 578.615, 536.798 577.553, 531.809 576.077 C 523.294 573.558, 492.271 560.822, 481 555.218 L 469.500 549.500 469.181 547.256 L 468.863 545.013 472.100 542.056 C 481.555 533.420, 512.212 522.979, 524.500 524.211 L 528.500 524.611 525.251 525.903 L 522.002 527.195 522.616 528.187 L 523.229 529.180 530.365 528.523 C 541.194 527.527, 559.613 524.450, 578.500 520.481 L 595.500 516.910 608.582 516.312 C 615.778 515.983, 623.349 516.031, 625.408 516.417 L 629.152 517.119 630.563 520.497 L 631.975 523.876 631.352 527.188 C 630.273 532.926, 625.989 540.895, 619.943 548.411 L 614.102 555.671 606.051 561.899 C 596.761 569.086, 596.565 569.418, 602.165 568.472 C 615.216 566.267, 628.629 559.480, 637.569 550.557 L 643.638 544.500 646.270 539 C 648.964 533.373, 655.530 511.791, 656.617 504.991 L 657.223 501.207 651.861 499.656 C 644.655 497.571, 624.097 492.080, 604.164 486.915 L 587.829 482.682 585.720 480.975 L 583.612 479.267 583.272 472.384 L 582.932 465.500 584.498 468.250 L 586.064 471 588.187 471 L 590.310 471 593.950 467.173 C 598.285 462.616, 604.215 450.939, 606.607 442.250 C 609.242 432.681, 610.833 436.824, 611.082 453.897 L 611.163 459.500 612.697 456 C 613.541 454.075, 614.890 448.900, 615.695 444.500 L 617.160 436.500 616.585 426.500 C 614.067 382.622, 595.201 362.371, 536.500 340.538 C 494.502 324.916, 477.552 313.113, 466.422 291.737 L 462.171 283.573 461.335 287.537 C 460.876 289.716, 460.565 295.598, 460.643 300.608 L 460.787 309.715 464.259 319.858 L 467.732 330 466.461 330 C 464.960 330, 457.490 324.036, 454.178 320.194 C 447.673 312.649, 443.435 302.764, 442.432 292.801 L 441.798 286.500 442.975 280 C 443.623 276.425, 445.524 270.700, 447.199 267.278 L 450.247 261.057 455.456 256.130 C 461.105 250.788, 467.953 246.893, 475.017 245.004 C 477.483 244.345, 480.305 242.949, 481.289 241.903 L 483.078 240 488.482 240 L 493.886 240 497.693 242.172 C 506.610 247.259, 506.642 247.516, 500 261.098 L 495 271.323 495 274.126 L 495 276.930 496.750 277.831 C 497.712 278.327, 501.278 278.972, 504.673 279.264 L 510.847 279.796 513.953 281.631 L 517.059 283.466 518.158 287.133 L 519.256 290.799 517.628 295.578 C 516.733 298.206, 516 300.504, 516 300.685 C 516 300.866, 519.134 300.723, 522.963 300.367 L 529.927 299.720 534.473 300.993 L 539.020 302.266 543.470 306.183 C 545.917 308.337, 550.055 313.565, 552.663 317.800 C 559.691 329.208, 562.036 332.061, 566.946 335.178 L 571.392 338 574.718 338 L 578.045 338 582.510 333.884 C 587.491 329.293, 587.511 328.506, 582.671 327.598 C 577.264 326.584, 573 320.838, 573 314.566 L 573 311 572.026 311 C 571.490 311, 570.353 312.350, 569.500 314 C 567.239 318.371, 565.574 317.744, 560.875 310.750 C 549.422 293.703, 534.888 277.861, 526.722 273.523 C 522.053 271.042, 522.058 270.417, 526.750 269.642 C 541.803 267.154, 557.887 271.975, 565.209 281.169 C 571.239 288.741, 573.462 290.633, 578.500 292.481 C 581.250 293.490, 587.008 295.635, 591.294 297.248 L 599.089 300.180 603.744 304.577 L 608.399 308.974 610.687 306.824 C 616.098 301.741, 631.099 276.765, 629.625 275.292 C 629.349 275.015, 625.197 273.684, 620.400 272.332 C 609.258 269.194, 605.231 267.105, 600.736 262.129 L 597.108 258.113 596.153 254.307 C 595.628 252.213, 594.913 246.017, 594.564 240.538 C 593.167 218.590, 591.347 213.980, 582.500 209.978 C 569.938 204.295, 560.018 195.052, 554.353 183.751 L 551.471 178.002 538.993 171.076 C 524.645 163.112, 523.851 163.034, 530.690 170.265 C 536.775 176.700, 536.913 176.953, 541.400 189.847 C 546.089 203.324, 545.887 204.357, 540.078 196.605 C 533.301 187.560, 507.517 167.875, 492.791 160.502 L 483.818 156.011 467.659 150.901 C 411.014 132.989, 404.505 129.831, 386.629 111.579 L 376.758 101.500 377.488 104 M 261.677 140.121 L 259.854 141.181 261.467 142.963 L 263.080 144.746 261.040 145.279 L 259 145.813 259 149.046 L 259 152.280 257.250 153.640 L 255.500 155.001 257.250 156.050 C 258.212 156.627, 259 157.722, 259 158.482 C 259 160.049, 262.460 161.452, 263.991 160.506 L 265 159.882 265 152.941 L 265 146 266.393 146 C 269.059 146, 270.138 156.005, 267.919 160.151 C 266.352 163.080, 267.539 163.590, 271.513 161.695 L 275 160.032 275 158.016 L 275 156 276.624 156 L 278.248 156 277.778 150.332 L 277.308 144.664 274.138 141.832 L 270.968 139 267.234 139.030 C 265.180 139.047, 262.680 139.538, 261.677 140.121 M 366.582 147.981 C 375.536 160.445, 387.037 170.529, 398.581 176.039 L 404.720 178.968 411.610 179.964 C 415.399 180.512, 421.736 180.969, 425.691 180.980 L 432.882 181 433.501 179.998 L 434.120 178.997 430.855 176.014 C 425.935 171.521, 415.717 166.571, 404 163.004 C 391.092 159.075, 379.647 153.794, 370.740 147.657 C 362.333 141.865, 362.195 141.875, 366.582 147.981 M 673.244 161.491 C 670.178 163.707, 668 168.198, 668 172.302 L 668 175.704 670.287 179.102 C 671.545 180.971, 673.834 183.105, 675.372 183.845 L 678.170 185.191 681.704 184.528 L 685.239 183.865 688.773 180.432 C 690.716 178.545, 693.250 176.945, 694.403 176.877 C 695.557 176.809, 712.025 176.847, 731 176.960 L 765.500 177.167 768 176.147 L 770.500 175.127 765 174.939 L 759.500 174.750 764.649 173.997 C 772.692 172.819, 774.703 170, 767.500 170 C 765.640 170, 763.855 169.575, 763.534 169.056 L 762.951 168.112 767.725 167.736 C 770.351 167.529, 756.075 167.277, 736 167.175 L 699.500 166.989 695.584 165.902 C 693.430 165.304, 690.406 163.882, 688.865 162.742 L 686.062 160.670 680.781 160.266 L 675.500 159.861 673.244 161.491 M 216.535 164.104 L 213 167.207 213 171.027 L 213 174.847 215.666 178.015 L 218.332 181.184 221.368 180.576 C 225.076 179.835, 228.617 176.662, 229.452 173.333 L 230.074 170.856 227.987 167.480 C 226.840 165.623, 225.023 163.825, 223.950 163.484 C 222.878 163.144, 222 162.446, 222 161.933 C 222 160.218, 220.101 160.972, 216.535 164.104 M 782 169.427 C 782 170.211, 781.212 171.059, 780.250 171.311 L 778.500 171.768 782 171.869 C 783.925 171.924, 786.175 171.526, 787 170.985 L 788.500 170 787 169.015 C 786.175 168.474, 784.712 168.024, 783.750 168.015 L 782 168 782 169.427 M 218.200 170.200 C 216.581 171.819, 216.690 173.547, 218.529 175.386 L 220.058 176.915 221.529 176.351 C 223.063 175.762, 223.433 173.291, 222.393 170.582 C 221.671 168.701, 219.864 168.536, 218.200 170.200 M 268.533 169.947 C 267.653 171.370, 268.775 173, 270.632 173 L 272.147 173 271.823 171.333 C 271.434 169.324, 269.437 168.484, 268.533 169.947 M 679.092 171.377 L 677.685 173.085 678.826 174.226 C 680.339 175.739, 681.240 174.704, 680.831 171.921 L 680.500 169.670 679.092 171.377 M 144.336 172.567 C 144.005 173.429, 144.202 174.602, 144.775 175.175 L 145.815 176.215 146.872 174.239 C 147.915 172.290, 147.489 171, 145.802 171 C 145.326 171, 144.667 171.705, 144.336 172.567 M 343.040 175.452 C 341.506 177.300, 342.020 179.983, 344.166 181.335 L 345.832 182.384 347.416 181.070 C 348.287 180.347, 349 178.733, 349 177.485 L 349 175.214 347.418 174.607 C 345.080 173.710, 344.372 173.847, 343.040 175.452 M 302.116 188.783 L 301.037 190.800 302.686 191.433 L 304.334 192.066 305.374 191.026 L 306.414 189.986 304.805 188.376 L 303.195 186.767 302.116 188.783 M 641.655 193.829 C 640.745 194.835, 640 196.624, 640 197.806 L 640 199.954 642.433 201.548 L 644.866 203.142 646.818 202.097 C 647.892 201.523, 649.058 199.907, 649.409 198.506 L 650.048 195.959 648.989 193.979 L 647.930 192 645.620 192 C 644.349 192, 642.565 192.823, 641.655 193.829 M 801.545 215.859 C 800.660 218.646, 801.919 220.942, 804.718 221.644 L 807.215 222.271 808.092 220.885 C 808.575 220.123, 808.976 218.262, 808.985 216.750 L 809 214 805.567 214 L 802.135 214 801.545 215.859 M 720.580 217.653 C 719.843 219.574, 720.686 221, 722.559 221 L 724 221 724 219.107 C 724 218.066, 723.362 216.969, 722.583 216.670 L 721.166 216.126 720.580 217.653 M 543.984 222.977 C 545.150 224.614, 547.201 229.179, 548.541 233.121 C 553.509 247.727, 557.651 252.215, 570 256.371 L 577.500 258.895 578.349 258.048 C 580.686 255.718, 574.500 247.080, 565.155 239.623 C 561.326 236.568, 554.779 230.903, 550.606 227.034 C 542.356 219.385, 540.706 218.374, 543.984 222.977 M 294.392 227.573 L 293.746 230.146 294.623 231.002 C 295.105 231.473, 296.726 232.161, 298.225 232.531 L 300.950 233.204 302.185 230.493 L 303.421 227.781 301.519 226.390 C 300.473 225.626, 298.587 225, 297.328 225 L 295.038 225 294.392 227.573 M 395.445 235.923 C 386.829 240.078, 375.781 249.500, 356.500 269.134 L 339.500 286.447 342.163 286.781 C 343.628 286.965, 348.752 286.184, 353.548 285.045 L 362.270 282.973 368.177 279.825 L 374.084 276.677 379.399 270.935 L 384.715 265.194 390.009 254.847 C 392.921 249.156, 396.836 242.088, 398.709 239.141 C 402.921 232.513, 402.787 232.382, 395.445 235.923 M 251.500 234.954 C 250.400 235.409, 248.451 236.911, 247.168 238.292 L 244.836 240.803 244.291 244.866 L 243.746 248.929 246.838 253.748 C 248.539 256.398, 250.734 261.477, 251.715 265.033 L 253.500 271.500 253.421 294.500 L 253.342 317.500 251.611 330.500 C 246.700 367.387, 237.655 398.439, 230.744 402.137 L 228.826 403.164 224.017 402.502 L 219.208 401.841 216.121 403.437 C 214.423 404.315, 212.323 406.409, 211.454 408.090 L 209.873 411.146 210.510 414.046 L 211.147 416.946 214.050 419.388 C 215.646 420.732, 218.233 422.112, 219.799 422.456 L 222.645 423.081 227.073 421.170 C 245.927 413.033, 255.790 395.567, 259.642 363.500 L 261.203 350.500 261.919 303.500 L 262.636 256.500 264.796 252 C 267.489 246.389, 267.520 244.365, 264.974 240.190 L 262.956 236.880 259.510 235.440 C 255.659 233.831, 254.400 233.754, 251.500 234.954 M 662.885 243.677 C 662.822 244.130, 662.839 245.226, 662.924 246.112 L 663.079 247.725 660.016 248.993 C 658.331 249.691, 656.555 250.973, 656.068 251.842 L 655.184 253.422 658.079 255.558 C 659.671 256.733, 660.679 257.987, 660.320 258.347 C 659.961 258.706, 660.165 259, 660.774 259 C 661.384 259, 662.124 258.609, 662.419 258.130 L 662.957 257.261 667.228 258.087 C 669.578 258.541, 681.625 258.930, 694 258.952 L 716.500 258.990 721.250 260.693 C 723.862 261.629, 726 262.912, 726 263.544 C 726 264.176, 728.138 266.671, 730.750 269.089 L 735.500 273.486 739.500 274.728 C 743.858 276.081, 751.756 276.207, 756.500 275 L 759.500 274.237 754 274.103 L 748.500 273.969 749.797 273.146 L 751.095 272.323 749.471 270.976 L 747.848 269.629 747.174 270.680 C 746.803 271.258, 745.375 272.039, 744 272.417 L 741.500 273.104 743.427 271.562 C 744.487 270.714, 745.162 269.876, 744.927 269.699 C 744.692 269.522, 740.093 265.224, 734.706 260.147 C 729.319 255.070, 723.694 250.392, 722.206 249.750 L 719.500 248.584 693 248.042 L 666.500 247.500 666.500 245.516 L 666.500 243.533 664.750 243.193 C 663.788 243.006, 662.948 243.224, 662.885 243.677 M 293.832 247.470 L 292.706 249.941 293.975 251.470 C 295.863 253.745, 297.893 253.328, 299.232 250.390 L 300.421 247.781 298.519 246.390 C 295.877 244.458, 295.125 244.631, 293.832 247.470 M 588.688 278.670 L 584.876 279.128 585.261 280.314 C 585.473 280.966, 587.601 282.587, 589.990 283.917 L 594.333 286.333 598.574 286.333 L 602.815 286.333 605.871 283.762 C 607.551 282.348, 609.505 280.985, 610.213 280.733 C 614.709 279.130, 598.104 277.539, 588.688 278.670 M 373.641 294.750 C 364.941 305.536, 344.826 340.160, 346.366 341.699 C 347.253 342.587, 361.520 336.110, 368.230 331.773 L 374.129 327.960 376.716 322.310 L 379.303 316.659 379.789 302.329 C 380.355 285.678, 380.658 286.052, 373.641 294.750 M 76.503 307.991 C 75.356 311.605, 79.069 313.869, 80.410 310.373 L 81.035 308.747 79.895 307.373 C 78.310 305.464, 77.243 305.658, 76.503 307.991 M 848.468 310.101 L 847.801 312.201 848.794 313.194 C 850.302 314.702, 853.431 313.717, 853.837 311.608 C 854.519 308.065, 849.557 306.671, 848.468 310.101 M 168.015 339.702 L 162.531 342.588 159.779 347.044 L 157.026 351.500 156.410 356.010 L 155.794 360.521 156.944 364.792 L 158.094 369.063 162.297 373.437 L 166.500 377.811 172.146 379.446 L 177.791 381.081 182.590 379.873 L 187.388 378.665 191.628 374.425 L 195.868 370.185 197.397 365.035 L 198.926 359.885 197.943 354.702 L 196.961 349.519 194.141 346.010 C 190.448 341.413, 184.298 338.055, 178.314 337.368 L 173.500 336.815 168.015 339.702 M 669.114 346.582 C 667.997 348.003, 666.806 350.035, 666.468 351.099 C 666.131 352.163, 664.425 353.648, 662.677 354.400 C 658.637 356.136, 645.515 368.297, 637.318 377.903 L 631 385.305 631.015 388.403 C 631.024 390.106, 631.418 392.111, 631.890 392.857 L 632.750 394.214 634.817 393.558 C 635.954 393.197, 643.094 387.001, 650.684 379.789 C 658.274 372.577, 665.740 365.912, 667.276 364.979 L 670.067 363.281 673.784 363.957 C 675.828 364.329, 678.957 364.255, 680.737 363.792 L 683.975 362.949 685.487 360.024 C 689.763 351.755, 684.997 344, 675.638 344 L 671.145 344 669.114 346.582 M 172.388 347.980 C 171.227 348.449, 169.314 350.057, 168.138 351.552 L 166 354.270 166 358.185 C 166 362.763, 168.074 367.238, 171.217 369.439 L 173.445 371 177.075 371 L 180.704 371 184.102 368.713 L 187.500 366.427 188.755 362.619 L 190.010 358.811 188.093 354.477 L 186.175 350.142 183.137 348.571 C 179.835 346.863, 175.713 346.637, 172.388 347.980 M 550.975 361.802 C 561.284 368.874, 569.244 377.538, 573.895 386.750 C 576.017 390.953, 575.470 392.476, 572.935 389.422 C 569.589 385.391, 560.317 382.347, 542.750 379.514 L 539 378.909 539 379.800 C 539 380.290, 542.938 383.094, 547.750 386.032 L 556.500 391.373 564.501 399.437 L 572.501 407.500 577.856 417.250 C 583.547 427.613, 584.255 428.260, 586.106 424.801 L 587.283 422.603 586.723 409.551 L 586.164 396.500 584.519 389.327 L 582.875 382.154 579.884 377.639 L 576.894 373.124 571.697 369.747 C 565.604 365.788, 552.744 359.977, 550.241 360.052 L 548.500 360.105 550.975 361.802 M 769.863 367.969 C 768.412 368.408, 762.112 369.096, 755.863 369.499 L 744.500 370.232 741.719 371.657 C 740.190 372.442, 733.360 378.463, 726.541 385.039 C 712.269 398.802, 711.891 399, 699.836 399 L 690.802 399 687.151 400.717 L 683.500 402.434 660.890 424.967 L 638.280 447.500 635.604 453.083 C 634.133 456.154, 632.671 460.252, 632.357 462.189 L 631.785 465.711 634.143 466.342 C 635.439 466.689, 646.937 466.979, 659.693 466.986 L 682.887 467 684.642 469.971 L 686.397 472.942 690.219 474.471 C 695.630 476.636, 696.770 476.430, 700.600 472.600 L 704 469.200 704 465.534 C 704 460.815, 702.657 458.391, 698.990 456.495 L 696.039 454.969 672.019 455.643 L 648 456.318 647.974 454.909 C 647.959 454.134, 657.268 444.330, 668.660 433.121 L 689.372 412.742 692.654 411.371 L 695.936 410 705.218 409.996 L 714.500 409.993 717.500 408.108 C 719.150 407.071, 725.514 401.522, 731.643 395.776 C 737.772 390.030, 744.522 384.468, 746.643 383.415 L 750.500 381.500 759.500 381.526 C 764.450 381.540, 770.664 381.727, 773.308 381.940 L 778.116 382.329 780.212 380.232 L 782.308 378.136 782.214 374.818 L 782.120 371.500 779.504 369.250 C 776.797 366.921, 774.387 366.601, 769.863 367.969 M 334.750 373.080 L 333 374.099 333 376.515 L 333 378.930 335.183 380.098 L 337.366 381.266 339.183 379.022 C 342.575 374.833, 339.293 370.434, 334.750 373.080 M 310.923 398.923 L 308 401.846 308 405 L 308 408.154 310.792 410.945 L 313.583 413.737 319.042 415.355 L 324.500 416.974 332.500 424.083 L 340.500 431.193 344.837 430.709 C 347.222 430.444, 349.656 429.744, 350.246 429.154 L 351.317 428.083 339.798 416.291 C 333.462 409.806, 327.958 403.480, 327.567 402.233 L 326.855 399.966 322.967 397.983 C 320.829 396.892, 317.902 396, 316.463 396 L 313.846 396 310.923 398.923 M 395.587 406.442 C 394.155 408.886, 389.325 414.749, 384.855 419.472 C 380.384 424.195, 376.988 428.322, 377.309 428.642 C 378.390 429.724, 387.569 426.917, 392.891 423.877 L 398.174 420.860 400.113 416.477 L 402.052 412.093 400.903 407.530 C 399.356 401.386, 398.636 401.239, 395.587 406.442 M 166.210 414.261 C 164.951 415.610, 163.677 418.240, 163.379 420.107 L 162.837 423.500 165.185 426.964 L 167.532 430.429 171.016 431.645 C 172.932 432.314, 175.672 433.110, 177.104 433.413 L 179.708 433.965 193.984 447.590 L 208.260 461.214 212.380 463.085 L 216.500 464.956 224.849 464.978 L 233.198 465 236.546 463.411 C 238.388 462.537, 245.217 456.800, 251.721 450.661 C 258.226 444.522, 264.393 438.825, 265.425 438 L 267.303 436.500 292.901 436 L 318.500 435.500 315.745 432.881 L 312.990 430.262 305.188 427.683 C 300.896 426.265, 293.361 424.596, 288.442 423.975 L 279.500 422.847 272.360 423.498 L 265.220 424.150 252.360 435.444 C 245.287 441.656, 237.721 448.597, 235.547 450.869 L 231.594 455 229.308 455 C 216.649 455, 187.986 432.598, 185.544 420.795 L 184.984 418.090 181.450 415.394 L 177.916 412.698 173.208 412.253 L 168.500 411.808 166.210 414.261 M 128.073 432.635 C 123.787 438.083, 127.730 445, 135.123 445 L 137.801 445 154.748 460.794 C 164.069 469.480, 175.364 479.916, 179.848 483.985 C 184.331 488.053, 188 491.779, 188 492.264 L 188 493.146 143.250 492.823 L 98.500 492.500 95.300 490.750 L 92.099 489 88.139 489 L 84.178 489 81.589 492.077 L 79 495.153 79 499.124 L 79 503.095 81.540 505.449 C 82.937 506.744, 85.163 508.075, 86.488 508.408 L 88.896 509.012 93.932 507.027 L 98.969 505.042 110.734 503.881 L 122.500 502.721 149.500 503.343 C 176.165 503.957, 191.816 505.073, 201.434 507.046 L 206.368 508.058 211.816 512.543 C 217.661 517.355, 220.631 518.560, 224.346 517.628 L 226.691 517.039 245.596 499.406 C 255.993 489.707, 265.850 480.925, 267.500 479.890 L 270.500 478.007 274.571 478.004 L 278.641 478 284.068 475.250 L 289.494 472.500 290.997 469.694 L 292.500 466.887 290.500 465.360 L 288.500 463.834 283.535 464.395 L 278.571 464.957 270.330 468.911 C 258.702 474.490, 250.940 480.018, 240 490.511 C 234.775 495.523, 229.202 500.608, 227.615 501.812 L 224.730 504 221.515 504 L 218.300 504 213.900 500.818 C 211.480 499.068, 204.775 493.091, 199 487.535 C 193.225 481.980, 181.525 470.912, 173 462.941 C 138.519 430.700, 137.678 430.011, 132.823 430.004 L 130.145 430 128.073 432.635 M 765.500 445.659 C 760.605 448.235, 757.282 451.916, 754.943 457.354 L 752.741 462.472 753.384 470.832 L 754.026 479.191 733.706 499.846 L 713.386 520.500 712.042 523.821 L 710.698 527.143 712.685 529.129 L 714.672 531.116 718.815 527.655 C 721.094 525.751, 731.277 516.189, 741.444 506.406 C 751.612 496.623, 760.734 488.164, 761.715 487.609 L 763.500 486.599 770.172 486.863 L 776.844 487.127 780.866 485.922 C 792.181 482.532, 798.351 470.578, 794.838 458.852 L 793.675 454.972 790.168 451.362 C 788.240 449.376, 784.825 446.917, 782.581 445.897 L 778.500 444.044 773.500 444.062 L 768.500 444.080 765.500 445.659 M 0.437 479 C 0.437 493.575, 0.577 499.538, 0.747 492.250 C 0.918 484.962, 0.918 473.038, 0.747 465.750 C 0.577 458.462, 0.437 464.425, 0.437 479 M 767.802 456.190 L 764.105 458.333 762.938 461.150 L 761.771 463.967 762.390 467.268 C 763.621 473.825, 768.941 478, 776.068 478 L 779.200 478 782.541 474.659 C 784.379 472.821, 786.193 470.081, 786.572 468.568 L 787.262 465.819 786.077 461.862 L 784.891 457.904 781.696 455.956 L 778.500 454.007 775 454.027 L 771.500 454.046 767.802 456.190 M 279.892 502.354 C 258.638 511.097, 249.943 521.659, 266.149 519.047 C 279.407 516.910, 282.379 515.372, 287.778 507.854 C 293.823 499.435, 291.288 497.667, 279.892 502.354 M 837.668 511.662 C 837.211 512.123, 827.986 512.764, 817.168 513.087 L 797.500 513.673 789.500 516.400 C 754.647 528.277, 720.505 556.306, 717.451 575.548 L 716.809 579.597 718.452 580.960 L 720.095 582.323 724.768 577.912 C 727.339 575.485, 738.241 564.929, 748.996 554.453 C 770.193 533.805, 774.436 530.432, 783.380 527.113 L 789.259 524.931 801.043 524.037 C 807.525 523.545, 813.654 523.308, 814.664 523.511 C 815.674 523.714, 822.936 524.108, 830.803 524.387 L 845.105 524.895 847.053 522.947 L 849 521 849 518.155 L 849 515.310 847.124 513.612 C 844.975 511.667, 838.906 510.415, 837.668 511.662 M 148.110 536.396 C 144.928 538.159, 143.079 541.701, 143.035 546.114 L 143 549.727 145.636 552.364 C 149.395 556.122, 154.624 556.245, 159.500 552.688 L 162.500 550.500 212 549.945 L 261.500 549.389 263.500 548.543 C 266.897 547.105, 269 544.789, 269 542.487 L 269 540.285 262.853 539.642 C 259.473 539.289, 235.864 539, 210.390 539 L 164.074 539 159 537 C 153.109 534.678, 151.382 534.582, 148.110 536.396 M 662.121 553.500 L 658.741 559.500 648.621 569.580 L 638.500 579.660 628.198 586.961 L 617.896 594.263 613.999 600.002 C 609.444 606.709, 602.949 612.672, 594.811 617.615 C 587.817 621.863, 587.629 622.433, 593.509 621.551 C 628.959 616.235, 668.857 577.023, 665.837 550.467 L 665.500 547.500 662.121 553.500 M 306.456 567.750 C 296.663 580.063, 289.212 599.365, 286.895 618.423 L 285.800 627.434 286.506 635.918 C 286.895 640.584, 287.534 645.268, 287.926 646.328 L 288.638 648.255 291.960 639.377 C 296.322 627.721, 299.227 621.998, 305.129 613.431 L 310 606.361 310.044 588.431 C 310.068 578.569, 310.457 568.587, 310.909 566.250 C 311.951 560.864, 311.926 560.872, 306.456 567.750 M 193.698 567.160 C 192.255 568.447, 190.808 570.644, 190.481 572.043 L 189.887 574.587 191.956 577.217 L 194.024 579.846 196.933 580.485 L 199.842 581.124 205.103 579.562 L 210.363 578 230.432 577.986 C 241.469 577.979, 251.493 577.706, 252.707 577.381 L 254.915 576.789 256.065 573.302 L 257.216 569.816 256.059 568.658 L 254.902 567.500 230.201 566.872 C 216.616 566.526, 203.434 565.924, 200.910 565.532 L 196.320 564.821 193.698 567.160 M 753.514 573.629 L 751.885 575.258 752.442 576.711 C 752.749 577.510, 753 578.336, 753 578.547 C 753 578.757, 753.937 579.431, 755.083 580.045 L 757.166 581.159 759.083 579.425 C 761.411 577.318, 761.509 575.652, 759.429 573.571 C 757.418 571.561, 755.564 571.579, 753.514 573.629 M 128.611 597.572 C 127.747 599.822, 129.732 603, 132 603 L 133.930 603 135.091 600.829 L 136.253 598.658 134.435 597.329 C 131.990 595.541, 129.348 595.651, 128.611 597.572 M 592.025 599.061 C 588.463 600.111, 582.404 601.314, 578.561 601.735 L 571.573 602.500 570.389 605 C 564.576 617.273, 564.626 622.996, 570.514 619.545 C 579.030 614.554, 601.780 596.562, 598.924 597.076 C 598.691 597.118, 595.586 598.012, 592.025 599.061 M 249.011 616.250 L 237.997 626.500 231.911 629.750 L 225.825 633 222.888 633 L 219.950 633 219.094 630.748 C 218.624 629.510, 216.022 626.424, 213.313 623.890 L 208.389 619.283 204.582 618.027 L 200.776 616.771 195.378 617.219 L 189.980 617.666 186.240 620.672 C 184.183 622.326, 181.382 625.664, 180.016 628.089 L 177.532 632.500 177.516 638.573 L 177.500 644.646 180.259 648.814 C 183.364 653.508, 188.912 657.489, 193.730 658.484 L 196.960 659.150 202.346 658.032 C 205.309 657.417, 209.605 655.699, 211.894 654.215 L 216.055 651.517 218.117 647.259 L 220.178 643 224.839 642.990 L 229.500 642.980 234.791 640.517 C 247.822 634.450, 264 618.175, 264 611.131 C 264 603.631, 261.744 604.401, 249.011 616.250 M 191.973 627.704 C 188.481 630.111, 187.158 632.023, 186.426 635.717 L 185.790 638.934 187.910 643.313 L 190.030 647.692 192.562 648.846 C 193.955 649.481, 196.581 650, 198.399 650 L 201.704 650 205.067 647.734 L 208.429 645.468 209.875 641.669 L 211.321 637.870 210.410 634.185 L 209.500 630.500 205.038 628.250 C 199.713 625.565, 195.341 625.382, 191.973 627.704 M 322.985 642.191 L 322.969 644.500 322.124 643.166 L 321.278 641.832 320.639 643.498 C 320.288 644.414, 320 646.455, 320 648.034 L 320 650.904 315.696 653.865 C 304.669 661.452, 302.063 669.873, 301.112 701 L 300.454 722.500 298.606 726.266 L 296.757 730.031 258.866 769.766 L 220.975 809.500 220.376 811.763 L 219.777 814.026 221.011 815.513 C 221.690 816.331, 223.239 817, 224.453 817 L 226.662 817 234.049 809.250 C 238.111 804.987, 255.929 786.585, 273.643 768.356 L 305.851 735.212 308.093 730.856 L 310.335 726.500 310.931 700.887 L 311.527 675.274 312.998 673.387 C 313.807 672.349, 316.330 669.250, 318.606 666.500 C 320.881 663.750, 323.525 659.964, 324.481 658.088 L 326.219 654.675 325.109 650.968 L 323.998 647.261 324.600 644.252 L 325.201 641.243 324.101 640.562 L 323 639.882 322.985 642.191 M 676 647.798 C 676 648.247, 674.763 649.141, 673.250 649.785 L 670.500 650.956 673.500 650.412 L 676.500 649.868 674.642 651.249 L 672.785 652.631 683.642 662.896 C 689.614 668.542, 696.300 674.127, 698.500 675.307 L 702.500 677.452 740 678.086 L 777.500 678.720 781 680.254 L 784.500 681.789 799.565 696.145 C 807.850 704.040, 816.752 712.975, 819.345 716 C 821.939 719.025, 825.183 722.719, 826.553 724.209 L 829.045 726.918 832.602 727.585 L 836.160 728.253 838.535 726.981 C 839.841 726.282, 841.654 724.141, 842.564 722.223 L 844.219 718.736 843.641 715.178 C 843.324 713.221, 842.227 710.782, 841.203 709.759 L 839.342 707.898 832.499 706.929 L 825.657 705.959 821.578 702.592 C 819.335 700.739, 812.126 694.192, 805.558 688.041 C 793.450 676.704, 788.161 672.914, 780.659 670.198 L 776.500 668.692 742 668.041 L 707.500 667.390 703.657 665.707 C 701.544 664.782, 696.432 660.865, 692.297 657.004 L 684.779 649.983 682.139 649.431 C 680.688 649.127, 678.712 648.453, 677.750 647.931 C 676.788 647.410, 676 647.350, 676 647.798 M 342.662 666.051 L 340.055 668.102 337.448 676.301 L 334.841 684.500 334.272 693.776 L 333.703 703.051 335.295 702.440 C 337.641 701.540, 350.859 685.345, 353.229 680.466 L 355.272 676.261 354.602 672.691 L 353.932 669.121 350.889 666.560 C 347.210 663.465, 346.042 663.392, 342.662 666.051 M 251.092 668.402 L 248.836 670.803 248.295 674.835 L 247.755 678.867 249.843 682.247 L 251.932 685.627 252.134 694.249 L 252.335 702.872 249.448 706.658 C 245.410 711.951, 175.621 783.363, 172.464 785.432 C 171.043 786.363, 167.362 787.534, 164.283 788.035 L 158.686 788.946 156.395 791.099 C 155.135 792.283, 153.830 794.498, 153.495 796.022 L 152.887 798.793 154.388 802.386 L 155.889 805.980 159.445 807.675 L 163 809.370 166.441 807.730 L 169.882 806.089 173.572 800.320 L 177.262 794.551 206.904 764.525 C 249.005 721.878, 258.624 711.658, 260.950 707.097 L 263 703.080 263 694.775 L 263 686.470 265 682.739 L 267 679.007 267 675.427 L 267 671.846 264.077 668.923 L 261.154 666 257.251 666 L 253.349 666 251.092 668.402 M 626.431 673.468 L 623.363 676.908 626.431 678.163 C 628.119 678.853, 634.113 683.894, 639.751 689.365 L 650.002 699.312 652.568 704.735 L 655.133 710.158 658.575 711.596 L 662.017 713.034 664.511 712.408 C 665.883 712.063, 668.130 710.446, 669.503 708.814 L 672 705.847 672 702.358 C 672 696.064, 667.702 692, 661.046 692 L 657.992 692 649.246 683.864 C 640.526 675.753, 635.292 671.859, 631.500 670.660 L 629.500 670.028 626.431 673.468 M 362.325 690.627 L 360.604 693.254 360.052 708.877 L 359.500 724.500 357 728.686 C 355.625 730.989, 346.708 741.045, 337.184 751.033 C 327.661 761.022, 319.382 770.262, 318.787 771.567 L 317.706 773.941 318.975 775.470 C 319.674 776.312, 321.487 777, 323.005 777 L 325.765 777 344.085 757.750 C 354.161 747.163, 363.703 737.088, 365.290 735.362 L 368.176 732.223 369.015 714.362 L 369.854 696.500 371.163 693.205 L 372.472 689.910 370.986 688.970 C 370.169 688.453, 368.273 688.024, 366.773 688.015 L 364.046 688 362.325 690.627 M 571 692.971 L 571 695.070 568.887 693.939 L 566.774 692.809 568.637 696.070 C 569.662 697.864, 576.800 705.764, 584.500 713.626 L 598.500 727.921 603 729.938 L 607.500 731.956 614.500 732.014 L 621.500 732.073 646.500 756.091 C 660.250 769.301, 673.678 781.885, 676.340 784.055 L 681.180 788 686.358 788 L 691.536 788 695.409 790.632 L 699.282 793.264 703.240 793.368 L 707.198 793.471 709.599 790.680 L 712 787.888 712 784.378 C 712 775.532, 704.462 771.683, 695.796 776.104 L 691.671 778.208 688.364 777.672 C 683.191 776.832, 677.071 772.004, 659.141 754.615 C 636.574 732.729, 628.384 725.205, 624.653 722.930 L 621.500 721.007 615.315 721.004 C 606.568 720.998, 605.745 720.520, 591.829 707.336 C 584.957 700.826, 577.459 694.459, 575.167 693.186 L 571 690.872 571 692.971 M 396.783 700.750 C 392.550 705.604, 391.986 709.949, 395 714.500 L 396.987 717.500 397.010 759 C 397.024 781.825, 397.463 810.436, 397.987 822.580 L 398.940 844.660 400.221 848.580 L 401.502 852.500 403.751 852.820 L 406 853.139 406.083 847.320 C 406.128 844.119, 406.495 814.050, 406.898 780.500 L 407.632 719.500 410.423 714.245 L 413.214 708.991 412.567 706.410 C 412.211 704.991, 410.747 702.743, 409.314 701.415 L 406.708 699 402.509 699 L 398.310 699 396.783 700.750 M 456.107 712.167 C 456.048 713.633, 455.438 715.021, 454.750 715.250 L 453.500 715.666 453.500 794.179 L 453.500 872.691 454.872 874.346 C 455.627 875.256, 457.074 876, 458.087 876 L 459.930 876 461.215 873.750 L 462.500 871.500 462.266 794.381 L 462.033 717.263 461.080 714.881 L 460.127 712.500 460.063 715.250 C 459.967 719.430, 458.237 718.535, 457.166 713.750 L 456.214 709.500 456.107 712.167 M 530.500 712.732 C 528.055 713.343, 527.035 714.800, 527.015 717.715 L 527 719.930 529.098 721.052 C 530.252 721.670, 535.835 722.506, 541.504 722.911 L 551.812 723.647 554.372 725.324 C 560.976 729.651, 607.453 777.347, 608.914 781.296 L 609.707 783.440 606.854 789.470 L 604.002 795.500 604.023 799.500 C 604.138 821.223, 632.927 827.271, 642.100 807.500 L 643.956 803.500 643.978 798.907 L 644 794.315 641.672 789.907 L 639.344 785.500 635.422 782.811 C 633.265 781.332, 630.375 779.844, 629 779.505 C 627.625 779.167, 624.906 778.472, 622.957 777.962 L 619.414 777.034 591.146 747.511 C 575.598 731.273, 561.595 717.325, 560.028 716.515 C 554.445 713.627, 536.247 711.296, 530.500 712.732 M 496.368 716.214 C 494.886 718.612, 493.860 769.480, 494.256 820.889 L 494.660 873.278 496.561 874.668 C 497.606 875.432, 499.125 875.930, 499.937 875.774 L 501.413 875.489 502.372 871.495 L 503.331 867.500 503.415 794.662 L 503.500 721.824 501.250 720.002 C 500.012 718.999, 499 717.464, 499 716.590 C 499 714.711, 497.435 714.488, 496.368 716.214 M 539.400 751.400 L 536 754.800 536.004 757.150 C 536.007 758.442, 537.355 761.525, 539 764 L 541.991 768.500 541.996 779.112 L 542 789.725 544.899 793.373 L 547.797 797.020 548.932 793.766 C 549.556 791.976, 550.346 784.994, 550.688 778.250 L 551.309 765.988 552.647 764.878 C 553.383 764.267, 554.466 761.982, 555.054 759.801 L 556.122 755.835 554.483 753.334 C 552.844 750.832, 547.507 748, 544.432 748 C 543.534 748, 541.270 749.530, 539.400 751.400 M 616.428 790.672 C 613.392 793.948, 612.588 796.894, 613.294 802.159 L 613.836 806.197 616.044 808.546 C 617.258 809.839, 619.543 811.180, 621.122 811.527 L 623.993 812.157 627.464 811.012 C 629.373 810.382, 632.074 808.512, 633.467 806.857 L 636 803.847 636 800.891 C 636 799.266, 635.360 796.405, 634.579 794.534 L 633.158 791.133 630.128 789.566 C 628.462 788.705, 625.255 788, 623.002 788 L 618.905 788 616.428 790.672" fill-rule="evenodd" stroke="none" style=""/>
</svg>