<?xml version="1.0" standalone="no"?>
<!DOCTYPE svg PUBLIC "-//W3C//DTD SVG 20010904//EN"
 "http://www.w3.org/TR/2001/REC-SVG-20010904/DTD/svg10.dtd">
<svg version="1.0" xmlns="http://www.w3.org/2000/svg"
 width="960.000000pt" height="960.000000pt" viewBox="0 0 960.000000 960.000000"
 preserveAspectRatio="xMidYMid meet">
<metadata>
Created by potrace 1.14, written by Peter Selinger 2001-2017
</metadata>
<g transform="translate(0.000000,960.000000) scale(0.100000,-0.100000)"
fill="#000000" stroke="none">
<path d="M4588 8235 c-1 -1 -42 -6 -89 -9 -47 -4 -94 -8 -105 -10 -10 -2 -46
-7 -79 -10 -33 -4 -91 -14 -130 -21 -38 -8 -81 -16 -95 -19 -192 -38 -460
-122 -650 -206 -198 -87 -363 -176 -525 -283 -331 -219 -629 -497 -854 -797
-39 -52 -74 -99 -79 -105 -80 -105 -232 -374 -322 -570 -107 -233 -212 -574
-246 -795 -3 -19 -7 -44 -9 -55 -16 -98 -21 -136 -33 -255 -9 -97 -8 -525 2
-615 13 -120 30 -242 40 -295 7 -34 15 -70 20 -100 5 -24 9 -45 22 -102 3 -15
6 -31 6 -35 0 -5 4 -15 9 -24 4 -9 11 -30 14 -46 2 -17 23 -86 46 -154 108
-326 251 -614 443 -889 54 -78 113 -158 126 -170 3 -3 21 -25 40 -50 86 -112
309 -337 465 -470 71 -60 311 -232 370 -266 11 -6 56 -33 100 -59 95 -57 284
-152 375 -189 36 -15 74 -31 85 -36 50 -22 296 -105 340 -115 11 -2 45 -10 75
-18 46 -13 152 -35 243 -53 12 -2 33 -6 47 -9 14 -3 52 -8 85 -11 33 -4 63 -8
66 -10 29 -17 535 -25 699 -12 82 7 208 23 260 32 14 3 43 7 65 11 22 3 47 7
55 10 8 2 26 6 40 9 149 26 475 128 618 192 29 13 55 24 58 24 15 0 295 146
387 202 160 96 324 215 472 341 64 54 303 292 345 342 14 17 46 55 71 85 213
257 410 591 539 915 92 231 180 568 205 780 4 33 9 69 11 79 19 103 26 538 11
709 -10 127 -46 346 -76 472 -33 139 -81 304 -114 390 -9 22 -27 72 -42 110
-71 184 -222 469 -348 655 -48 71 -134 189 -147 200 -3 3 -21 25 -40 50 -77
101 -300 328 -425 435 -333 285 -752 519 -1168 654 -160 51 -350 100 -457 116
-25 4 -54 9 -65 11 -29 6 -152 23 -210 29 -56 6 -541 15 -547 10z"/>
</g>
</svg>
